<?xml version="1.0" encoding="UTF-8"?>
<svg xmlns="http://www.w3.org/2000/svg" xmlns:xlink="http://www.w3.org/1999/xlink" width="58px" height="58px" viewBox="0 0 58 57" version="1.1">
<g id="surface1">
<path style=" stroke:none;fill-rule:evenodd;fill:rgb(97.254902%,97.254902%,97.254902%);fill-opacity:1;" d="M 5.4375 5.34375 L 29.597656 5.34375 L 40.480469 16.03125 L 40.472656 50.46875 L 5.4375 50.46875 Z M 5.4375 5.34375 "/>
<path style=" stroke:none;fill-rule:evenodd;fill:rgb(89.411765%,91.37255%,93.725491%);fill-opacity:1;" d="M 5.4375 14.878906 L 5.4375 50.46875 L 34.234375 50.46875 C 32.886719 43.339844 28.996094 35.613281 23.359375 28.867188 C 18.148438 22.65625 11.800781 17.703125 5.4375 14.878906 Z M 5.4375 14.878906 "/>
<path style=" stroke:none;fill-rule:evenodd;fill:rgb(89.411765%,91.37255%,93.725491%);fill-opacity:1;" d="M 40.480469 16.03125 L 29.605469 16.03125 L 29.605469 5.34375 Z M 40.480469 16.03125 "/>
<path style=" stroke:none;fill-rule:evenodd;fill:rgb(100%,33.333334%,46.27451%);fill-opacity:1;" d="M 10.269531 10.09375 L 24.769531 10.09375 L 24.769531 17.21875 L 10.269531 17.21875 Z M 10.269531 10.09375 "/>
<path style=" stroke:none;fill-rule:evenodd;fill:rgb(50.196081%,54.509807%,60.784316%);fill-opacity:1;" d="M 10.042969 30.28125 C 9.378906 30.28125 8.835938 30.8125 8.835938 31.46875 C 8.835938 32.125 9.378906 32.65625 10.042969 32.65625 L 25.128906 32.65625 C 25.796875 32.65625 26.339844 32.125 26.339844 31.46875 C 26.339844 30.8125 25.796875 30.28125 25.128906 30.28125 Z M 10.042969 30.28125 "/>
<path style=" stroke:none;fill-rule:evenodd;fill:rgb(50.196081%,54.509807%,60.784316%);fill-opacity:1;" d="M 9.949219 35.03125 C 9.28125 35.03125 8.738281 35.5625 8.738281 36.21875 C 8.738281 36.875 9.28125 37.40625 9.949219 37.40625 L 21.46875 37.40625 C 22.136719 37.40625 22.679688 36.875 22.679688 36.21875 C 22.679688 35.5625 22.136719 35.03125 21.46875 35.03125 Z M 9.949219 35.03125 "/>
<path style=" stroke:none;fill-rule:evenodd;fill:rgb(50.196081%,54.509807%,60.784316%);fill-opacity:1;" d="M 9.800781 39.78125 C 9.132812 39.78125 8.59375 40.3125 8.59375 40.96875 C 8.59375 41.625 9.132812 42.15625 9.800781 42.15625 L 21.617188 42.15625 C 22.28125 42.15625 22.824219 41.625 22.824219 40.96875 C 22.824219 40.3125 22.28125 39.78125 21.617188 39.78125 Z M 9.800781 39.78125 "/>
<path style=" stroke:none;fill-rule:evenodd;fill:rgb(50.196081%,54.509807%,60.784316%);fill-opacity:1;" d="M 10.070312 44.53125 C 9.402344 44.53125 8.863281 45.0625 8.863281 45.71875 C 8.863281 46.375 9.402344 46.90625 10.070312 46.90625 L 23.5625 46.90625 C 24.230469 46.90625 24.769531 46.375 24.769531 45.71875 C 24.769531 45.0625 24.230469 44.53125 23.5625 44.53125 Z M 10.070312 44.53125 "/>
<path style=" stroke:none;fill-rule:evenodd;fill:rgb(50.196081%,54.509807%,60.784316%);fill-opacity:1;" d="M 10.40625 20.78125 C 9.738281 20.78125 9.199219 21.3125 9.199219 21.96875 C 9.199219 22.625 9.738281 23.15625 10.40625 23.15625 L 31.886719 23.15625 C 32.554688 23.15625 33.09375 22.625 33.09375 21.96875 C 33.09375 21.3125 32.554688 20.78125 31.886719 20.78125 Z M 10.40625 20.78125 "/>
<path style=" stroke:none;fill-rule:evenodd;fill:rgb(50.196081%,54.509807%,60.784316%);fill-opacity:1;" d="M 10.269531 25.53125 C 9.605469 25.53125 9.0625 26.0625 9.0625 26.71875 C 9.0625 27.375 9.605469 27.90625 10.269531 27.90625 L 25.980469 27.90625 C 26.648438 27.90625 27.1875 27.375 27.1875 26.71875 C 27.1875 26.0625 26.648438 25.53125 25.980469 25.53125 Z M 10.269531 25.53125 "/>
<path style=" stroke:none;fill-rule:evenodd;fill:rgb(94.901961%,64.705884%,4.705882%);fill-opacity:1;" d="M 52.5625 39.78125 C 52.5625 46.339844 47.152344 51.65625 40.480469 51.65625 C 33.804688 51.65625 28.394531 46.339844 28.394531 39.78125 C 28.394531 33.222656 33.804688 27.90625 40.480469 27.90625 C 47.152344 27.90625 52.5625 33.222656 52.5625 39.78125 Z M 52.5625 39.78125 "/>
<path style=" stroke:none;fill-rule:evenodd;fill:rgb(96.862745%,77.64706%,23.921569%);fill-opacity:1;" d="M 40.480469 27.90625 C 33.804688 27.90625 28.394531 33.222656 28.394531 39.78125 C 28.394531 44.542969 31.25 48.652344 35.367188 50.542969 C 41.542969 48.648438 46.023438 42.980469 46.023438 36.289062 C 46.023438 33.363281 45.164062 30.636719 43.683594 28.332031 C 42.660156 28.054688 41.589844 27.90625 40.480469 27.90625 Z M 40.480469 27.90625 "/>
<path style=" stroke:none;fill-rule:evenodd;fill:rgb(50.196081%,54.509807%,60.784316%);fill-opacity:1;" d="M 40.480469 30.660156 C 40.15625 30.660156 39.847656 30.785156 39.621094 31.007812 C 39.390625 31.230469 39.261719 31.53125 39.265625 31.84375 L 39.265625 33.371094 C 37.601562 33.859375 36.359375 35.324219 36.359375 37.078125 C 36.359375 39.234375 38.246094 40.960938 40.480469 40.960938 C 41.453125 40.960938 42.167969 41.660156 42.167969 42.484375 C 42.167969 43.3125 41.453125 44.003906 40.480469 44.003906 C 39.503906 44.003906 38.792969 43.3125 38.792969 42.484375 C 38.792969 42.171875 38.664062 41.871094 38.4375 41.648438 C 38.207031 41.425781 37.898438 41.300781 37.578125 41.304688 C 37.253906 41.300781 36.945312 41.425781 36.714844 41.648438 C 36.488281 41.871094 36.359375 42.171875 36.359375 42.484375 C 36.359375 44.238281 37.601562 45.703125 39.265625 46.191406 L 39.265625 47.71875 C 39.261719 48.03125 39.390625 48.332031 39.621094 48.554688 C 39.847656 48.777344 40.15625 48.902344 40.480469 48.902344 C 41.152344 48.898438 41.695312 48.371094 41.691406 47.71875 L 41.691406 46.191406 C 43.355469 45.703125 44.59375 44.238281 44.59375 42.484375 C 44.59375 40.328125 42.710938 38.601562 40.480469 38.601562 C 39.503906 38.601562 38.792969 37.902344 38.792969 37.078125 C 38.792969 36.25 39.503906 35.558594 40.480469 35.558594 C 41.453125 35.558594 42.167969 36.25 42.167969 37.078125 C 42.167969 37.390625 42.292969 37.691406 42.523438 37.914062 C 42.75 38.136719 43.058594 38.261719 43.382812 38.257812 C 44.054688 38.257812 44.597656 37.730469 44.59375 37.078125 C 44.59375 35.324219 43.355469 33.859375 41.691406 33.371094 L 41.691406 31.84375 C 41.695312 31.191406 41.152344 30.664062 40.480469 30.660156 Z M 40.480469 30.660156 "/>
</g>
</svg>
