<?xml version="1.0" encoding="UTF-8"?>
<svg xmlns="http://www.w3.org/2000/svg" xmlns:xlink="http://www.w3.org/1999/xlink" width="58px" height="58px" viewBox="0 0 58 57" version="1.1">
<g id="surface1">
<path style=" stroke:none;fill-rule:evenodd;fill:rgb(90.588236%,90.588236%,90.588236%);fill-opacity:1;" d="M 9.667969 16.03125 L 48.335938 16.03125 L 48.335938 44.53125 L 9.667969 44.53125 Z M 9.667969 16.03125 "/>
<path style=" stroke:none;fill-rule:evenodd;fill:rgb(98.039216%,98.039216%,98.039216%);fill-opacity:1;" d="M 9.667969 16.03125 L 9.667969 44.421875 C 9.738281 44.457031 9.804688 44.492188 9.871094 44.53125 L 31.121094 44.53125 C 38.304688 40.664062 42.789062 33.210938 42.8125 25.089844 C 42.8125 21.96875 42.144531 18.878906 40.855469 16.03125 Z M 9.667969 16.03125 "/>
<path style=" stroke:none;fill-rule:evenodd;fill:rgb(50.196081%,54.509807%,60.784316%);fill-opacity:1;" d="M 31.398438 29.09375 C 30.730469 29.09375 30.191406 29.625 30.191406 30.28125 C 30.191406 30.9375 30.730469 31.46875 31.398438 31.46875 L 37.460938 31.46875 C 38.128906 31.46875 38.667969 30.9375 38.667969 30.28125 C 38.667969 29.625 38.128906 29.09375 37.460938 29.09375 Z M 31.398438 29.09375 "/>
<path style=" stroke:none;fill-rule:evenodd;fill:rgb(50.196081%,54.509807%,60.784316%);fill-opacity:1;" d="M 31.34375 32.65625 C 30.675781 32.65625 30.136719 33.1875 30.136719 33.84375 C 30.136719 34.5 30.675781 35.03125 31.34375 35.03125 L 41.085938 35.03125 C 41.753906 35.03125 42.292969 34.5 42.292969 33.84375 C 42.292969 33.1875 41.753906 32.65625 41.085938 32.65625 Z M 31.34375 32.65625 "/>
<path style=" stroke:none;fill-rule:evenodd;fill:rgb(50.196081%,54.509807%,60.784316%);fill-opacity:1;" d="M 31.449219 36.21875 C 30.78125 36.21875 30.242188 36.75 30.242188 37.40625 C 30.242188 38.0625 30.78125 38.59375 31.449219 38.59375 L 43.503906 38.59375 C 44.171875 38.59375 44.710938 38.0625 44.710938 37.40625 C 44.710938 36.75 44.171875 36.21875 43.503906 36.21875 Z M 31.449219 36.21875 "/>
<path style=" stroke:none;fill-rule:evenodd;fill:rgb(90.588236%,90.588236%,90.588236%);fill-opacity:1;" d="M 26.585938 33.84375 C 26.585938 37.121094 23.882812 39.78125 20.542969 39.78125 C 17.207031 39.78125 14.503906 37.121094 14.503906 33.84375 C 14.503906 30.5625 17.207031 27.90625 20.542969 27.90625 C 23.882812 27.90625 26.585938 30.5625 26.585938 33.84375 Z M 26.585938 33.84375 "/>
<path style=" stroke:none;fill-rule:evenodd;fill:rgb(100%,33.333334%,46.27451%);fill-opacity:1;" d="M 20.542969 27.90625 L 20.542969 33.84375 L 25.394531 37.382812 C 26.140625 36.394531 26.585938 35.167969 26.585938 33.84375 C 26.585938 30.5625 23.882812 27.90625 20.542969 27.90625 Z M 20.542969 27.90625 "/>
<path style=" stroke:none;fill-rule:evenodd;fill:rgb(90.588236%,90.588236%,90.588236%);fill-opacity:1;" d="M 6.042969 44.53125 L 51.960938 44.53125 L 51.960938 45.71875 C 51.960938 50.308594 48.175781 51.65625 43.503906 51.65625 L 14.503906 51.65625 C 9.832031 51.65625 6.042969 50.308594 6.042969 45.71875 Z M 6.042969 44.53125 "/>
<path style=" stroke:none;fill-rule:evenodd;fill:rgb(98.039216%,98.039216%,98.039216%);fill-opacity:1;" d="M 6.042969 44.53125 L 6.042969 45.71875 C 6.042969 50.308594 9.832031 51.65625 14.503906 51.65625 L 27.589844 51.65625 C 33.820312 49.769531 39.628906 47.320312 44.476562 44.53125 Z M 6.042969 44.53125 "/>
<path style=" stroke:none;fill-rule:evenodd;fill:rgb(94.901961%,64.705884%,4.705882%);fill-opacity:1;" d="M 38.667969 14.84375 C 38.667969 20.089844 34.339844 24.34375 29.003906 24.34375 C 23.664062 24.34375 19.335938 20.089844 19.335938 14.84375 C 19.335938 9.597656 23.664062 5.34375 29.003906 5.34375 C 34.339844 5.34375 38.667969 9.597656 38.667969 14.84375 Z M 38.667969 14.84375 "/>
<path style=" stroke:none;fill-rule:evenodd;fill:rgb(96.862745%,77.64706%,23.921569%);fill-opacity:1;" d="M 29.003906 5.34375 C 23.664062 5.34375 19.335938 9.597656 19.335938 14.84375 C 19.335938 17.726562 20.644531 20.304688 22.707031 22.046875 C 22.726562 22.050781 22.746094 22.050781 22.769531 22.050781 C 29.679688 22.050781 35.28125 16.542969 35.28125 9.75 C 35.28125 8.960938 35.207031 8.191406 35.0625 7.441406 C 33.402344 6.128906 31.296875 5.34375 29.003906 5.34375 Z M 29.003906 5.34375 "/>
<path style=" stroke:none;fill-rule:evenodd;fill:rgb(50.196081%,54.509807%,60.784316%);fill-opacity:1;" d="M 29.003906 7.3125 C 28.332031 7.3125 27.789062 7.839844 27.789062 8.492188 L 27.789062 9.546875 C 26.449219 10.015625 25.464844 11.230469 25.464844 12.679688 C 25.464844 14.539062 27.089844 16.023438 29.003906 16.023438 C 29.65625 16.023438 30.109375 16.476562 30.109375 17.003906 C 30.109375 17.53125 29.65625 17.984375 29.003906 17.984375 C 28.347656 17.984375 27.894531 17.53125 27.894531 17.003906 C 27.894531 16.351562 27.351562 15.824219 26.679688 15.824219 C 26.007812 15.824219 25.464844 16.351562 25.464844 17.003906 C 25.464844 18.453125 26.449219 19.671875 27.789062 20.140625 L 27.789062 21.191406 C 27.789062 21.84375 28.332031 22.375 29.003906 22.375 C 29.671875 22.371094 30.214844 21.84375 30.214844 21.191406 L 30.214844 20.140625 C 31.554688 19.671875 32.539062 18.453125 32.539062 17.003906 C 32.539062 15.144531 30.914062 13.660156 29.003906 13.660156 C 28.347656 13.660156 27.894531 13.207031 27.894531 12.679688 C 27.894531 12.152344 28.347656 11.699219 29.003906 11.699219 C 29.65625 11.699219 30.109375 12.152344 30.109375 12.679688 C 30.109375 12.992188 30.238281 13.292969 30.464844 13.515625 C 30.691406 13.738281 31.003906 13.863281 31.324219 13.863281 C 31.996094 13.859375 32.539062 13.332031 32.539062 12.679688 C 32.539062 11.230469 31.554688 10.011719 30.214844 9.542969 L 30.214844 8.492188 C 30.214844 7.839844 29.671875 7.3125 29.003906 7.3125 Z M 29.003906 7.3125 "/>
</g>
</svg>
