<?xml version="1.0" encoding="UTF-8"?>
<svg xmlns="http://www.w3.org/2000/svg" xmlns:xlink="http://www.w3.org/1999/xlink" width="58px" height="58px" viewBox="0 0 58 57" version="1.1">
<g id="surface1">
<path style=" stroke:none;fill-rule:evenodd;fill:rgb(50.196081%,54.509807%,60.784316%);fill-opacity:1;" d="M 39.441406 6.476562 C 39.132812 6.558594 38.867188 6.757812 38.707031 7.03125 L 35.007812 13.367188 C 34.675781 13.933594 34.875 14.660156 35.453125 14.988281 C 36.03125 15.3125 36.769531 15.117188 37.101562 14.550781 L 40.199219 9.25 L 42.351562 10.480469 C 42.929688 10.808594 43.671875 10.613281 44.003906 10.046875 C 44.339844 9.480469 44.140625 8.753906 43.566406 8.425781 L 40.359375 6.597656 C 40.082031 6.4375 39.75 6.394531 39.441406 6.476562 Z M 39.441406 6.476562 "/>
<path style=" stroke:none;fill-rule:evenodd;fill:rgb(90.588236%,90.588236%,90.588236%);fill-opacity:1;" d="M 6.023438 23.75 L 51.9375 23.75 L 51.9375 51.0625 L 6.023438 51.0625 Z M 6.023438 23.75 "/>
<path style=" stroke:none;fill-rule:evenodd;fill:rgb(98.039216%,98.039216%,98.039216%);fill-opacity:1;" d="M 6.023438 23.75 L 6.023438 45.871094 C 11.761719 46.703125 18.167969 46.589844 24.546875 45.539062 C 36.054688 43.628906 46.304688 38.878906 51.9375 32.84375 L 51.9375 23.75 Z M 6.023438 23.75 "/>
<path style=" stroke:none;fill-rule:evenodd;fill:rgb(50.196081%,54.509807%,60.784316%);fill-opacity:1;" d="M 14.609375 30.238281 C 14.277344 30.238281 13.960938 30.359375 13.726562 30.578125 C 13.492188 30.792969 13.363281 31.085938 13.363281 31.390625 L 13.363281 32.832031 C 11.695312 33.308594 10.449219 34.714844 10.449219 36.394531 C 10.449219 38.472656 12.355469 40.132812 14.609375 40.132812 C 15.574219 40.132812 16.277344 40.785156 16.277344 41.5625 C 16.277344 42.339844 15.574219 42.992188 14.609375 42.992188 C 13.644531 42.992188 12.941406 42.339844 12.941406 41.5625 C 12.941406 41.257812 12.808594 40.964844 12.574219 40.746094 C 12.339844 40.53125 12.023438 40.410156 11.695312 40.410156 C 11.007812 40.410156 10.449219 40.925781 10.449219 41.5625 C 10.449219 43.242188 11.695312 44.648438 13.363281 45.125 L 13.363281 46.566406 C 13.363281 46.871094 13.492188 47.164062 13.726562 47.378906 C 13.960938 47.597656 14.277344 47.71875 14.609375 47.71875 C 14.9375 47.71875 15.257812 47.597656 15.488281 47.378906 C 15.722656 47.164062 15.855469 46.871094 15.855469 46.566406 L 15.855469 45.125 C 17.523438 44.648438 18.769531 43.242188 18.769531 41.5625 C 18.769531 39.484375 16.863281 37.824219 14.609375 37.824219 C 13.644531 37.824219 12.941406 37.171875 12.941406 36.394531 C 12.941406 35.617188 13.644531 34.964844 14.609375 34.964844 C 15.574219 34.964844 16.277344 35.617188 16.277344 36.394531 C 16.277344 36.699219 16.410156 36.996094 16.640625 37.210938 C 16.875 37.425781 17.191406 37.546875 17.523438 37.546875 C 17.855469 37.546875 18.171875 37.425781 18.40625 37.210938 C 18.636719 36.996094 18.769531 36.699219 18.769531 36.394531 C 18.769531 34.714844 17.523438 33.308594 15.855469 32.832031 L 15.855469 31.390625 C 15.855469 31.085938 15.722656 30.792969 15.488281 30.578125 C 15.257812 30.359375 14.9375 30.238281 14.609375 30.238281 Z M 14.609375 30.238281 "/>
<path style=" stroke:none;fill-rule:evenodd;fill:rgb(100%,33.333334%,46.27451%);fill-opacity:1;" d="M 22.9375 29.6875 L 47.125 29.6875 L 47.125 35.625 L 22.9375 35.625 Z M 22.9375 29.6875 "/>
<path style=" stroke:none;fill-rule:evenodd;fill:rgb(50.196081%,54.509807%,60.784316%);fill-opacity:1;" d="M 22.90625 39.1875 C 22.238281 39.1875 21.699219 39.71875 21.699219 40.375 C 21.699219 41.03125 22.238281 41.5625 22.90625 41.5625 L 36.140625 41.5625 C 36.808594 41.5625 37.351562 41.03125 37.351562 40.375 C 37.351562 39.71875 36.808594 39.1875 36.140625 39.1875 Z M 22.90625 39.1875 "/>
<path style=" stroke:none;fill-rule:evenodd;fill:rgb(50.196081%,54.509807%,60.784316%);fill-opacity:1;" d="M 22.96875 42.75 C 22.304688 42.75 21.761719 43.28125 21.761719 43.9375 C 21.761719 44.59375 22.304688 45.125 22.96875 45.125 L 47.535156 45.125 C 48.199219 45.125 48.742188 44.59375 48.742188 43.9375 C 48.742188 43.28125 48.199219 42.75 47.535156 42.75 Z M 22.96875 42.75 "/>
<path style=" stroke:none;fill-rule:evenodd;fill:rgb(94.901961%,64.705884%,4.705882%);fill-opacity:1;" d="M 47.105469 6.257812 C 45.925781 5.585938 44.414062 5.984375 43.734375 7.152344 L 31.398438 28.257812 L 31.683594 32.644531 L 35.671875 30.695312 L 48.007812 9.589844 C 48.6875 8.421875 48.285156 6.933594 47.105469 6.257812 Z M 47.105469 6.257812 "/>
<path style=" stroke:none;fill-rule:evenodd;fill:rgb(96.862745%,77.64706%,23.921569%);fill-opacity:1;" d="M 45.9375 5.933594 C 45.0625 5.910156 44.203125 6.347656 43.734375 7.152344 L 34.746094 22.53125 C 36.476562 21.535156 38.238281 20.363281 39.933594 19.082031 C 41.792969 17.675781 43.535156 16.164062 45.054688 14.640625 L 48.007812 9.589844 C 48.6875 8.421875 48.285156 6.933594 47.105469 6.261719 C 46.734375 6.050781 46.335938 5.941406 45.9375 5.933594 Z M 45.9375 5.933594 "/>
</g>
</svg>
