<?xml version="1.0" encoding="UTF-8"?>
<svg xmlns="http://www.w3.org/2000/svg" xmlns:xlink="http://www.w3.org/1999/xlink" width="58px" height="58px" viewBox="0 0 58 57" version="1.1">
<g id="surface1">
<path style=" stroke:none;fill-rule:evenodd;fill:rgb(100%,33.333334%,46.27451%);fill-opacity:1;" d="M 14.964844 6.316406 C 18.71875 7.769531 23.761719 8.785156 30.148438 7.386719 L 22.558594 19.148438 Z M 14.964844 6.316406 "/>
<path style=" stroke:none;fill-rule:evenodd;fill:rgb(90.588236%,90.588236%,90.588236%);fill-opacity:1;" d="M 8.457031 29.839844 L 8.457031 47.023438 L 5.171875 50.253906 L 39.96875 50.253906 L 36.65625 47.023438 L 36.65625 29.839844 C 36.65625 22.164062 30.34375 15.941406 22.558594 15.941406 C 14.769531 15.941406 8.457031 22.164062 8.457031 29.839844 Z M 8.457031 29.839844 "/>
<path style=" stroke:none;fill-rule:evenodd;fill:rgb(98.039216%,98.039216%,98.039216%);fill-opacity:1;" d="M 22.273438 15.945312 C 14.617188 16.097656 8.457031 22.257812 8.457031 29.839844 L 8.457031 47.023438 L 5.171875 50.253906 L 19.863281 50.253906 C 26.160156 46.644531 30.078125 39.777344 30.097656 32.3125 C 30.09375 25.886719 27.203125 19.835938 22.273438 15.945312 Z M 22.273438 15.945312 "/>
<path style=" stroke:none;fill-rule:evenodd;fill:rgb(50.196081%,54.509807%,60.784316%);fill-opacity:1;" d="M 22.554688 21.644531 C 22.21875 21.644531 21.898438 21.761719 21.660156 21.972656 C 21.421875 22.1875 21.285156 22.476562 21.285156 22.773438 L 21.285156 25.234375 C 18.832031 25.730469 16.957031 27.636719 16.957031 29.933594 C 16.957031 32.613281 19.507812 34.757812 22.554688 34.757812 C 24.289062 34.757812 25.613281 35.921875 25.613281 37.328125 C 25.613281 38.730469 24.289062 39.890625 22.554688 39.890625 C 20.824219 39.890625 19.496094 38.730469 19.496094 37.328125 C 19.5 37.027344 19.363281 36.738281 19.125 36.527344 C 18.886719 36.3125 18.566406 36.195312 18.226562 36.195312 C 17.890625 36.195312 17.566406 36.3125 17.332031 36.527344 C 17.09375 36.738281 16.957031 37.027344 16.957031 37.328125 C 16.957031 39.621094 18.832031 41.527344 21.285156 42.027344 L 21.285156 44.484375 C 21.285156 44.785156 21.421875 45.074219 21.660156 45.285156 C 21.898438 45.496094 22.21875 45.617188 22.554688 45.617188 C 22.894531 45.617188 23.214844 45.496094 23.453125 45.285156 C 23.691406 45.074219 23.828125 44.785156 23.828125 44.484375 L 23.828125 42.027344 C 26.28125 41.527344 28.15625 39.621094 28.15625 37.328125 C 28.15625 34.648438 25.601562 32.5 22.554688 32.5 C 20.824219 32.5 19.496094 31.335938 19.496094 29.933594 C 19.496094 28.527344 20.824219 27.371094 22.554688 27.371094 C 24.289062 27.371094 25.613281 28.527344 25.613281 29.933594 C 25.613281 30.234375 25.75 30.519531 25.988281 30.734375 C 26.226562 30.945312 26.546875 31.066406 26.886719 31.066406 C 27.222656 31.066406 27.542969 30.945312 27.78125 30.734375 C 28.019531 30.519531 28.15625 30.234375 28.15625 29.933594 C 28.15625 27.636719 26.28125 25.730469 23.828125 25.234375 L 23.828125 22.773438 C 23.828125 22.476562 23.691406 22.1875 23.453125 21.972656 C 23.214844 21.761719 22.894531 21.644531 22.554688 21.644531 Z M 22.554688 21.644531 "/>
<path style=" stroke:none;fill-rule:evenodd;fill:rgb(94.901961%,64.705884%,4.705882%);fill-opacity:1;" d="M 33.832031 27.691406 C 33.832031 32.9375 38.160156 37.191406 43.5 37.191406 C 48.839844 37.191406 53.167969 32.9375 53.167969 27.691406 C 53.167969 22.445312 48.839844 18.191406 43.5 18.191406 C 38.160156 18.191406 33.832031 22.445312 33.832031 27.691406 Z M 33.832031 27.691406 "/>
<path style=" stroke:none;fill-rule:evenodd;fill:rgb(98.823529%,79.215688%,23.921569%);fill-opacity:1;" d="M 40.5625 18.640625 C 36.660156 19.863281 33.832031 23.453125 33.832031 27.691406 C 33.832031 32.9375 38.160156 37.191406 43.5 37.191406 C 45.257812 37.191406 46.902344 36.730469 48.320312 35.925781 C 49.597656 34.132812 50.351562 31.953125 50.351562 29.597656 C 50.351562 23.976562 46.085938 19.34375 40.5625 18.640625 Z M 40.5625 18.640625 "/>
<path style=" stroke:none;fill-rule:evenodd;fill:rgb(50.196081%,54.509807%,60.784316%);fill-opacity:1;" d="M 43.5 20.160156 C 42.828125 20.164062 42.289062 20.691406 42.285156 21.34375 L 42.285156 22.390625 C 40.949219 22.859375 39.964844 24.078125 39.964844 25.527344 C 39.964844 27.386719 41.589844 28.871094 43.5 28.871094 C 44.152344 28.871094 44.605469 29.328125 44.605469 29.855469 C 44.605469 30.382812 44.152344 30.835938 43.5 30.835938 C 42.847656 30.835938 42.394531 30.382812 42.394531 29.855469 C 42.394531 29.542969 42.265625 29.242188 42.039062 29.019531 C 41.808594 28.796875 41.5 28.671875 41.175781 28.671875 C 40.507812 28.675781 39.964844 29.203125 39.964844 29.855469 C 39.964844 31.304688 40.949219 32.523438 42.285156 32.992188 L 42.285156 34.042969 C 42.289062 34.695312 42.828125 35.222656 43.5 35.222656 C 44.171875 35.222656 44.714844 34.695312 44.714844 34.042969 L 44.714844 32.988281 C 46.050781 32.519531 47.039062 31.304688 47.039062 29.855469 C 47.039062 27.996094 45.410156 26.511719 43.5 26.511719 C 42.847656 26.511719 42.394531 26.054688 42.394531 25.527344 C 42.394531 25 42.847656 24.550781 43.5 24.550781 C 44.152344 24.550781 44.605469 25 44.605469 25.527344 C 44.605469 25.84375 44.734375 26.144531 44.960938 26.363281 C 45.191406 26.585938 45.5 26.710938 45.820312 26.710938 C 46.144531 26.710938 46.453125 26.585938 46.683594 26.363281 C 46.910156 26.144531 47.039062 25.84375 47.039062 25.527344 C 47.039062 24.082031 46.050781 22.863281 44.714844 22.394531 L 44.714844 21.34375 C 44.714844 20.691406 44.171875 20.160156 43.5 20.160156 Z M 43.5 20.160156 "/>
<path style=" stroke:none;fill-rule:evenodd;fill:rgb(94.901961%,64.705884%,4.705882%);fill-opacity:1;" d="M 37.078125 31.621094 C 31.921875 32.980469 28.863281 38.1875 30.242188 43.257812 C 31.625 48.324219 36.925781 51.332031 42.082031 49.972656 C 47.238281 48.617188 50.300781 43.40625 48.917969 38.339844 C 47.535156 33.269531 42.234375 30.261719 37.078125 31.621094 Z M 37.078125 31.621094 "/>
<path style=" stroke:none;fill-rule:evenodd;fill:rgb(98.823529%,79.215688%,23.921569%);fill-opacity:1;" d="M 47.71875 35.664062 C 45.507812 32.277344 41.246094 30.523438 37.078125 31.621094 C 31.921875 32.980469 28.863281 38.1875 30.242188 43.257812 C 30.699219 44.921875 31.578125 46.367188 32.738281 47.503906 C 34.828125 48.253906 37.167969 48.402344 39.484375 47.792969 C 45.003906 46.339844 48.457031 41.089844 47.71875 35.664062 Z M 47.71875 35.664062 "/>
<path style=" stroke:none;fill-rule:evenodd;fill:rgb(50.196081%,54.509807%,60.784316%);fill-opacity:1;" d="M 39.582031 33.265625 C 38.910156 33.265625 38.367188 33.796875 38.367188 34.445312 L 38.367188 35.496094 C 37.03125 35.964844 36.046875 37.183594 36.046875 38.632812 C 36.046875 40.492188 37.667969 41.976562 39.582031 41.976562 C 40.234375 41.976562 40.6875 42.433594 40.6875 42.960938 C 40.6875 43.488281 40.234375 43.941406 39.582031 43.941406 C 38.929688 43.941406 38.472656 43.488281 38.472656 42.960938 C 38.476562 42.648438 38.347656 42.347656 38.121094 42.125 C 37.890625 41.902344 37.582031 41.777344 37.257812 41.777344 C 36.589844 41.78125 36.046875 42.308594 36.046875 42.960938 C 36.046875 44.410156 37.03125 45.628906 38.367188 46.097656 L 38.367188 47.148438 C 38.367188 47.800781 38.910156 48.328125 39.582031 48.328125 C 40.253906 48.328125 40.796875 47.800781 40.796875 47.148438 L 40.796875 46.09375 C 42.132812 45.625 43.117188 44.410156 43.117188 42.960938 C 43.117188 41.101562 41.492188 39.617188 39.582031 39.617188 C 38.929688 39.617188 38.472656 39.160156 38.472656 38.632812 C 38.472656 38.105469 38.929688 37.65625 39.582031 37.65625 C 40.234375 37.65625 40.6875 38.105469 40.6875 38.632812 C 40.6875 38.945312 40.816406 39.246094 41.042969 39.46875 C 41.273438 39.691406 41.582031 39.816406 41.902344 39.816406 C 42.226562 39.816406 42.535156 39.691406 42.765625 39.46875 C 42.992188 39.246094 43.121094 38.945312 43.117188 38.632812 C 43.117188 37.1875 42.132812 35.96875 40.796875 35.5 L 40.796875 34.445312 C 40.796875 33.792969 40.253906 33.265625 39.582031 33.265625 Z M 39.582031 33.265625 "/>
</g>
</svg>
